<?xml version="1.0" encoding="UTF-8"?>
<svg width="173px" height="125px" viewBox="0 0 173 125" version="1.1" xmlns="http://www.w3.org/2000/svg" xmlns:xlink="http://www.w3.org/1999/xlink">
    <!-- Generator: Sketch 63.1 (92452) - https://sketch.com -->
    <title>Group</title>
    <desc>Created with Sketch.</desc>
    <g id="Page-1" stroke="none" stroke-width="1" fill="none" fill-rule="evenodd">
        <g id="shutterstock_710321878" transform="translate(-38.000000, -264.000000)">
            <g id="Group" transform="translate(38.556000, 264.687000)">
                <polyline id="Fill-433" fill="#882C2D" points="14.129 110.564 -3.55271368e-15 114.684 12.295 118.415 15.285 118.415 14.184 110.45 14.129 110.564"></polyline>
                <polyline id="Fill-434" fill="#432F60" points="0 114.684 0 118.415 12.295 118.415 0 114.684"></polyline>
                <polyline id="Fill-435" fill="#1B4C2F" points="10.832 94.641 0 114.684 14.129 110.564 10.832 94.641"></polyline>
                <polyline id="Fill-436" fill="#4A488B" points="10.832 94.641 14.129 110.564 22.604 93.042 20.911 85.93 10.832 94.641"></polyline>
                <polyline id="Fill-437" fill="#2B2F6F" points="15.157 61.764 10.832 94.641 20.911 85.93 15.157 61.764"></polyline>
                <polyline id="Fill-438" fill="#E77D96" points="16.293 66.537 27.772 114.741 35.203 86.89 16.293 66.537"></polyline>
                <polyline id="Fill-439" fill="#5DBCAF" points="44.612 72.564 16.293 66.537 35.203 86.89 44.612 72.564"></polyline>
                <polyline id="Fill-440" fill="#189898" points="38.565 49.997 16.293 66.537 44.612 72.564 38.565 49.997"></polyline>
                <polyline id="Fill-441" fill="#1B86A0" points="13.133 53.264 16.293 66.537 38.565 49.997 13.133 53.264"></polyline>
                <polyline id="Fill-442" fill="#B32833" points="8.355 48.398 9.844 75.627 13.133 53.264 8.355 48.398"></polyline>
                <polyline id="Fill-443" fill="#432F60" points="8.355 48.398 8.355 75.6 2.827 92.055 6.948 86.412 8.382 75.627 9.844 75.627 8.355 48.398"></polyline>
                <polyline id="Fill-444" fill="#1A8486" points="8.382 75.627 6.948 86.412 9.64 77.014 9.844 75.627 8.382 75.627"></polyline>
                <polyline id="Fill-445" fill="#B84A2F" points="6.948 86.412 2.827 92.055 2.827 100.796 6.948 86.412"></polyline>
                <polyline id="Fill-446" fill="#492F5E" points="37.181 29.215 8.355 48.398 13.133 53.264 37.181 29.215"></polyline>
                <polyline id="Fill-447" fill="#924E8E" points="37.181 29.215 13.133 53.264 38.565 49.997 37.181 29.215"></polyline>
                <polyline id="Fill-448" fill="#432F60" points="19.492 15.969 8.355 48.398 37.181 29.215 19.492 15.969"></polyline>
                <polyline id="Fill-449" fill="#2B2F6F" points="19.492 15.969 37.181 29.215 62.504 5.464 37.686 5.464 19.492 15.969"></polyline>
                <polyline id="Fill-450" fill="#196F85" points="62.504 5.464 37.181 29.215 75.844 37.001 62.504 5.464"></polyline>
                <polyline id="Fill-451" fill="#E05669" points="37.181 29.215 38.565 49.997 75.844 37.001 37.181 29.215"></polyline>
                <polyline id="Fill-452" fill="#E67D83" points="75.844 37.001 38.565 49.997 86.212 65.577 75.844 37.001"></polyline>
                <polyline id="Fill-453" fill="#59B579" points="38.565 49.997 62.72 72.564 77.583 65.577 86.212 65.577 38.565 49.997"></polyline>
                <polyline id="Fill-454" fill="#4AB16E" points="38.565 49.997 44.612 72.564 62.72 72.564 38.565 49.997"></polyline>
                <polyline id="Fill-455" fill="#283C6E" points="26.971 122.136 44.272 122.136 27.772 114.741 26.971 122.136"></polyline>
                <polyline id="Fill-456" fill="#4A488B" points="38.045 110.218 27.772 114.741 44.272 122.136 38.045 110.218"></polyline>
                <polyline id="Fill-457" fill="#E0547D" points="35.203 86.89 27.772 114.741 38.045 110.218 35.203 86.89"></polyline>
                <polyline id="Fill-458" fill="#1B5465" points="83.288 113.244 77.728 124.207 88.749 124.207 83.478 112.869 83.288 113.244"></polyline>
                <polyline id="Fill-459" fill="#882C2D" points="83.478 112.869 88.749 124.207 98.598 119.365 92.538 114.888 83.576 112.675 83.478 112.869"></polyline>
                <polyline id="Fill-460" fill="#382C4A" points="98.598 119.365 88.749 124.207 98.598 124.207 98.598 119.365"></polyline>
                <polyline id="Fill-461" fill="#B84A2F" points="83.576 112.675 92.538 114.888 86.731 85.006 83.364 112.623 83.576 112.675"></polyline>
                <polyline id="Fill-462" fill="#22A648" points="86.731 85.006 92.538 114.888 99.67 93.203 86.731 85.006"></polyline>
                <polyline id="Fill-463" fill="#8AA93E" points="86.731 85.006 99.67 93.203 86.212 65.577 84.751 81.121 86.731 85.006"></polyline>
                <polyline id="Fill-464" fill="#F7C056" points="86.212 65.577 99.67 93.203 112.74 53.461 86.212 65.577"></polyline>
                <polyline id="Fill-465" fill="#249546" points="109.75 62.554 103.175 82.545 119.762 85.251 109.75 62.554"></polyline>
                <polyline id="Fill-466" fill="#728B3F" points="101.705 87.014 112.873 106.376 119.762 85.251 103.175 82.545 101.705 87.014"></polyline>
                <polyline id="Fill-467" fill="#8AA93E" points="119.762 85.251 112.873 106.376 125.929 107.312 126.236 107.334 126.236 99.925 119.762 85.251"></polyline>
                <polyline id="Fill-468" fill="#0DABBB" points="117.046 113.611 126.048 107.462 125.929 107.312 112.873 106.376 117.046 113.611"></polyline>
                <polyline id="Fill-469" fill="#1C6E71" points="126.048 107.462 117.046 113.611 133.019 121.143 135.665 119.595 126.236 107.699 126.048 107.462"></polyline>
                <polyline id="Fill-470" fill="#602222" points="117.046 113.611 117.046 122.778 130.224 122.778 133.019 121.143 117.046 113.611"></polyline>
                <polyline id="Fill-471" fill="#EFA343" points="75.844 37.001 86.212 65.577 112.74 53.461 75.844 37.001"></polyline>
                <polyline id="Fill-472" fill="#EB8E31" points="75.844 37.001 112.74 53.461 110.156 44.635 98.952 36.969 97.413 29.671 75.844 37.001"></polyline>
                <polyline id="Fill-473" fill="#38AD62" points="92.355 4.391 75.844 37.001 97.413 29.671 95.774 21.905 101.083 15.854 92.355 4.391"></polyline>
                <polyline id="Fill-474" fill="#249546" points="77.059 10.158 75.844 37.001 92.355 4.391 77.059 10.158"></polyline>
                <polyline id="Fill-475" fill="#1B9AB6" points="62.504 5.464 75.844 37.001 77.059 10.158 62.504 5.464"></polyline>
                <polyline id="Fill-476" fill="#D9732C" points="92.355 4.391 101.083 15.854 103.733 12.833 104.004 2.84217094e-14 92.355 4.391"></polyline>
                <polyline id="Fill-477" fill="#EB8E31" points="104.004 0 103.733 12.833 105.756 10.527 112.816 11.583 118.107 7.403 104.004 0"></polyline>
                <polyline id="Fill-478" fill="#EE9C44" points="118.107 7.403 112.816 11.583 124.84 13.381 118.107 7.403"></polyline>
                <polyline id="Fill-479" fill="#349BCA" points="124.84 13.381 119.552 24.6 137.211 28.034 124.84 13.381"></polyline>
                <polyline id="Fill-480" fill="#67BA81" points="124.84 13.381 137.211 28.034 129.561 7.403 118.107 7.403 124.84 13.381"></polyline>
                <polyline id="Fill-481" fill="#4AB16E" points="129.561 7.403 137.211 28.034 143.653 17.666 129.561 7.403"></polyline>
                <polyline id="Fill-482" fill="#C66D2F" points="137.211 28.034 153.063 39.996 143.653 17.666 137.211 28.034"></polyline>
                <polyline id="Fill-483" fill="#D9732C" points="137.211 28.034 144.337 45.549 144.507 45.965 153.063 39.996 137.211 28.034"></polyline>
                <polyline id="Fill-484" fill="#51C0DB" points="137.211 28.034 126.35 42.215 125.886 42.82 144.507 45.965 137.211 28.034"></polyline>
                <polyline id="Fill-485" fill="#E577A4" points="119.552 24.6 125.886 42.82 126.35 42.215 137.211 28.034 119.552 24.6"></polyline>
                <polyline id="Fill-486" fill="#E0578B" points="119.552 24.6 112.874 46.496 125.886 42.82 119.552 24.6"></polyline>
                <polyline id="Fill-487" fill="#7E5794" points="119.552 24.6 98.952 36.969 110.156 44.635 112.874 46.496 119.552 24.6"></polyline>
                <polyline id="Fill-488" fill="#6A3982" points="95.774 21.905 98.952 36.969 119.552 24.6 95.774 21.905"></polyline>
                <polyline id="Fill-489" fill="#492F5E" points="101.083 15.854 95.774 21.905 119.552 24.6 105.756 10.527 101.083 15.854"></polyline>
                <polyline id="Fill-490" fill="#126FAA" points="105.756 10.527 119.552 24.6 124.84 13.381 112.816 11.583 105.756 10.527"></polyline>
                <polyline id="Fill-491" fill="#268E45" points="110.156 44.635 112.74 53.461 125.886 42.82 112.874 46.496 110.156 44.635"></polyline>
                <polyline id="Fill-492" fill="#22A648" points="112.74 53.461 136.262 48.707 125.886 42.82 112.74 53.461"></polyline>
                <polyline id="Fill-493" fill="#1B86A0" points="125.886 42.82 136.262 48.707 141.694 51.018 144.507 45.965 125.886 42.82"></polyline>
                <polyline id="Fill-494" fill="#F7C056" points="144.507 45.965 141.694 51.018 147.272 53.39 152.3 55.53 159.297 54.787 172.513 53.383 161.826 51.639 152.247 55.476 150.321 49.761 144.507 45.965"></polyline>
                <polyline id="Fill-495" fill="#9BC862" points="150.323 49.763 152.249 55.478 161.828 51.641 157.687 50.965 151.761 49.999 150.323 49.763"></polyline>
                <path d="M153.063,39.996 L151.759,49.997 L157.685,50.963 L153.063,39.996 Z M151.224,55.072 L150.164,63.997 L163.26,79.358 L161.089,59.04 L159.297,54.787 L152.3,55.53 L151.224,55.072 L151.224,55.072 Z" id="Fill-496" fill="#DF477C"></path>
                <path d="M153.063,39.996 L144.507,45.965 L150.321,49.761 L151.759,49.997 L153.063,39.996 Z M147.272,53.39 L150.164,63.997 L151.224,55.072 L147.272,53.39 L147.272,53.39 Z" id="Fill-497" fill="#9D2B2F"></path>
                <polyline id="Fill-498" fill="#6A3982" points="150.164 63.997 162.019 107.481 163.26 79.358 150.164 63.997"></polyline>
                <polyline id="Fill-499" fill="#D8232D" points="162.019 107.481 157.841 122.522 162.997 124.208 162.063 108.231 162.019 108.238 162.038 107.801 162.019 107.481"></polyline>
                <polyline id="Fill-500" fill="#31305A" points="163.26 79.358 162.019 107.481 166.197 106.838 163.26 79.358"></polyline>
                <polyline id="Fill-501" fill="#283C6E" points="162.038 107.801 162.997 124.208 166.197 106.838 162.019 107.481 162.038 107.801"></polyline>
                <polyline id="Fill-502" fill="#B191B7" points="152.254 55.476 152.3 55.53 159.297 54.787 172.513 53.383 161.826 51.639 161.823 51.64 161.828 51.641 152.254 55.476"></polyline>
            </g>
        </g>
    </g>
</svg>